<?xml version="1.0" encoding="utf-8"?>
<!-- Generator: Adobe Illustrator 19.0.0, SVG Export Plug-In . SVG Version: 6.00 Build 0)  -->
<svg version="1.1" id="Layer_1" xmlns="http://www.w3.org/2000/svg" xmlns:xlink="http://www.w3.org/1999/xlink" x="0px" y="0px"
	 viewBox="0 0 200 200" style="enable-background:new 0 0 200 200;" xml:space="preserve">
<style type="text/css">
	.st0{fill:url(#XMLID_6_);}
	.st1{fill:#FFFFFF;}
</style>
<g id="XMLID_5_">
	
		<linearGradient id="XMLID_6_" gradientUnits="userSpaceOnUse" x1="100" y1="202" x2="100" y2="2" gradientTransform="matrix(1 0 0 -1 0 202)">
		<stop  offset="0" style="stop-color:#F41414"/>
		<stop  offset="1" style="stop-color:#4C0C0C"/>
	</linearGradient>
	<path id="XMLID_7_" class="st0" d="M143.2,200h-88c-2.4,0-4.9-0.6-7-1.8c-8.2-4.6-13.5-12.1-18-20.5c-6.4-11.9-13.2-23.5-20.1-35.1
		c-1.8-3.1-3.8-6-6-9c-3.3-4.7-4.7-10.4-3.8-16.2c0-11.3-0.1-22.5-0.1-33.9c-0.7-6,1.1-11.9,4.6-16.7c0.3-0.4,0.5-0.9,0.9-1.3
		c7.8-13.2,15.8-26.3,23-39.8C35.1,13.9,42.2,3.2,56.4,0.2c0.7-0.2,1.3-0.2,2-0.2h83.1c0.7,0,1.4,0.1,2,0.2
		c14.2,3,21.2,13.8,27.8,25.6c7.8,13.9,16.2,27.6,24.5,41.3c2.7,4.4,4.1,9.3,4.1,14.4c0.1,9.6,0.1,25,0.1,37.3
		c0,4.7-1.3,9.3-3.7,13.3c-9.4,15.8-19,31.3-27.8,47.3c-4.5,8.2-9.8,15-18,18.8C148.3,199.5,145.7,200,143.2,200z M137.8,59.6
		c5.6,0.3,10.5-3.8,11.2-9.3c1.2-10-2.1-10.7-16.3-11.9c-2.1-0.2-4.2-0.8-6.4-0.9c-19.4-1.3-38.8-2.7-57.5,4.6
		C57.9,46.2,49.4,52.8,46,64.5c-6,20.9,4.3,37.2,27.7,42.8c11.1,2.7,22.4,4,33.5,6.7c6.1,1.5,11.7,4.6,11.4,12.5
		c-0.3,7.7-5.6,11.4-11.9,11.9c-13.1,1-26.3,1.3-39.5,0.9c-3.9-0.1-7.8-0.5-11.8-1.1c-6.4-0.9-12.2,4.1-12.2,10.5l0,0
		c0,5.4,4.1,10,9.5,10.6c13.2,1.5,26.3,3.3,39.3,2.7c14.2-0.5,28.8-3.4,42.1-8.3c15.5-5.6,21.6-19,20.5-35.7
		c-1-15.8-10.5-24.5-24.4-29.1c-6.1-2-12.5-3-18.8-4.4c-8.4-2-17-3.1-25-6.2c-3.1-1.2-6.6-6.4-6.4-9.6c0.2-3.1,4.1-7.6,7.4-8.9
		c4.9-2,10.8-2.4,16.3-2.2C114.9,58.2,126.4,58.9,137.8,59.6z"/>
	<path id="XMLID_1_" class="st1" d="M147.7,58.2c-0.2,1.1-1.2,1.9-2.3,1.8c-14-0.8-27.9-1.7-41.9-2.1c-5.4-0.2-11.3,0.2-16.3,2.2
		c-3.3,1.3-7.3,5.7-7.4,8.9c-0.2,3.2,3.3,8.5,6.4,9.6c8,3,16.6,4.2,25,6.2c6.3,1.5,12.8,2.4,18.8,4.4c14,4.6,23.4,13.2,24.4,29.1
		c1.1,16.6-5,30-20.5,35.7c-13.3,4.9-27.9,7.8-42.1,8.3c-15.5,0.6-31.1-2.1-47-3.5c-1-0.1-1.8-0.9-1.8-2v-17.7c0-1.3,1.1-2.2,2.3-2
		c7.5,1,14.7,2.4,21.7,2.5c13.2,0.2,26.4,0.1,39.5-0.9c6.4-0.5,11.6-4.2,11.9-11.9c0.3-7.9-5.3-11.1-11.4-12.5
		c-11.1-2.7-22.4-4.1-33.5-6.7C50.3,101.7,40,85.4,45.9,64.5C49.3,52.8,57.9,46.2,68.7,42c18.7-7.3,38.1-6,57.5-4.6
		c2.1,0.2,4.2,0.7,6.4,0.9C151.5,40,151,40.4,147.7,58.2z"/>
</g>
</svg>
