<?xml version="1.0" encoding="utf-8"?>
<!-- Generator: Adobe Illustrator 19.0.0, SVG Export Plug-In . SVG Version: 6.00 Build 0)  -->
<svg version="1.1" id="Layer_1" xmlns="http://www.w3.org/2000/svg" xmlns:xlink="http://www.w3.org/1999/xlink" x="0px" y="0px"
	 viewBox="0 0 612 792" style="enable-background:new 0 0 612 792;" xml:space="preserve">
<style type="text/css">
	.st0{fill:url(#SVGID_1_);}
	.st1{fill:#FFFFFF;}
</style>
<g>
	<linearGradient id="SVGID_1_" gradientUnits="userSpaceOnUse" x1="255.4444" y1="66.8889" x2="255.4444" y2="322.0728">
		<stop  offset="0" style="stop-color:#F41414"/>
		<stop  offset="1" style="stop-color:#4C0C0C"/>
	</linearGradient>
	<path class="st0" d="M310.4,322.1H198.2c-3.1,0-6.2-0.8-8.9-2.3c-10.5-5.9-17.2-15.4-23-26.1c-8.1-15.2-16.9-30-25.7-44.8
		c-2.3-3.9-4.9-7.7-7.6-11.5c-3.4-4.8-5.2-10.5-5.2-16.4c0-16.9,0-33.8,0-50.7c0-6.5,2.2-12.8,6.1-18.1c0.4-0.5,0.7-1.1,1.1-1.6
		c10-16.8,20.2-33.5,29.4-50.8c8.2-15.2,17.2-28.8,35.4-32.6c0.9-0.2,1.7-0.3,2.6-0.3h106c0.9,0,1.8,0.1,2.6,0.3
		c18.1,3.8,27,17.6,35.4,32.7c9.9,17.8,20.6,35.2,31.2,52.7c3.4,5.6,5.2,11.9,5.2,18.4c0.1,12.3,0.1,31.9,0.1,47.6
		c0,6-1.6,11.9-4.7,17c-12,20.1-24.2,40-35.5,60.4c-5.8,10.4-12.5,19.1-23,24C316.9,321.4,313.6,322.1,310.4,322.1z M303.6,142.9
		c7.2,0.4,13.4-4.8,14.3-11.9c1.5-12.8-2.7-13.7-20.8-15.2c-2.7-0.2-5.4-1-8.2-1.2c-24.7-1.7-49.5-3.4-73.4,5.9
		c-13.8,5.4-24.7,13.8-29,28.7c-7.7,26.7,5.5,47.5,35.3,54.6c14.1,3.4,28.6,5.1,42.7,8.6c7.8,1.9,14.9,5.9,14.5,16
		c-0.4,9.8-7.1,14.5-15.2,15.2c-16.7,1.3-33.6,1.6-50.4,1.2c-5-0.1-10-0.7-15.1-1.4c-8.2-1.1-15.5,5.2-15.5,13.4v0
		c0,6.9,5.2,12.7,12.1,13.5c16.8,1.9,33.5,4.2,50.1,3.5c18.1-0.7,36.7-4.4,53.7-10.6c19.8-7.2,27.6-24.3,26.2-45.5
		c-1.3-20.1-13.4-31.2-31.1-37.1c-7.8-2.6-16-3.8-24-5.6c-10.7-2.5-21.7-4-31.9-7.9c-4-1.5-8.4-8.2-8.2-12.3c0.2-4,5.2-9.7,9.4-11.3
		c6.3-2.5,13.8-3,20.8-2.8C274.4,141.1,289,142,303.6,142.9z"/>
	<path class="st1" d="M316.2,141.2c-0.3,1.4-1.5,2.4-2.9,2.3c-17.8-1-35.6-2.2-53.5-2.7c-6.9-0.2-14.4,0.3-20.8,2.8
		c-4.2,1.7-9.3,7.3-9.4,11.3c-0.2,4.1,4.2,10.8,8.2,12.3c10.2,3.8,21.2,5.4,31.9,7.9c8,1.9,16.3,3,24,5.6
		c17.8,5.9,29.8,16.9,31.1,37.1c1.4,21.2-6.4,38.3-26.2,45.5c-17,6.2-35.6,9.9-53.7,10.6c-19.8,0.8-39.7-2.7-59.9-4.5
		c-1.3-0.1-2.3-1.2-2.3-2.6v-22.6c0-1.6,1.4-2.8,2.9-2.6c9.6,1.3,18.7,3,27.7,3.2c16.8,0.3,33.7,0.1,50.4-1.2
		c8.1-0.6,14.8-5.4,15.2-15.2c0.4-10.1-6.7-14.1-14.5-16c-14.1-3.4-28.6-5.2-42.7-8.6c-29.7-7.1-42.9-27.9-35.3-54.6
		c4.3-14.9,15.2-23.3,29-28.7c23.9-9.3,48.6-7.7,73.4-5.9c2.7,0.2,5.4,0.9,8.2,1.2C321.1,117.9,320.4,118.5,316.2,141.2z"/>
</g>
</svg>
